{"title":"Katy Perry - Birthday (Official) 720p ReEnc DeeJayAhmed","uid":10041071,"size":72575282,"categoryP":"video","categoryS":"music_videos","magnet":"?xt=urn:btih:197121af7619cdfe3616ab7a108e5ce82f9be1ee&amp;dn=Katy+Perry+-+Birthday+%28Official%29+720p+ReEnc+DeeJayAhmed&amp;tr=udp%3A%2F%2Ftracker.openbittorrent.com%3A80&amp;tr=udp%3A%2F%2Fopen.demonii.com%3A1337&amp;tr=udp%3A%2F%2Ftracker.coppersurfer.tk%3A6969&amp;tr=udp%3A%2F%2Fexodus.desync.com%3A6969","seeders":1,"leechers":0,"uploader":"DeeJayPirate","files":6,"time":1398465974,"description":"DeeJayAhmed\n\nKeep Seeding!!=))\nDo Comment On The A/V Quality Considering The Size Of The File..!\n\n\nVideo \nID : 1 \nFormat : AVC \nFormat/Info : Advanced Video Codec \nFormat profile : High &lt;a class=&quot;__cf_email__&quot; href=&quot;/cdn-cgi/l/email-protection&quot; data-cfemail=&quot;605150202c544e51&quot;&gt;[email&amp;#160;protected]&lt;/a&gt;&lt;script cf-hash='f9e31' type=&quot;text/javascript&quot;&gt;\n/* &lt;![CDATA[ */!function(){try{var t=&quot;currentScript&quot;in document?document.currentScript:function(){for(var t=document.getElementsByTagName(&quot;script&quot;),e=t.length;e--;)if(t[e].getAttribute(&quot;cf-hash&quot;))return t[e]}();if(t&amp;&amp;t.previousSibling){var e,r,n,i,c=t.previousSibling,a=c.getAttribute(&quot;data-cfemail&quot;);if(a){for(e=&quot;&quot;,r=parseInt(a.substr(0,2),16),n=2;a.length-n;n+=2)i=parseInt(a.substr(n,2),16)^r,e+=String.fromCharCode(i);e=document.createTextNode(e),c.parentNode.replaceChild(e,c)}}}catch(u){}}();/* ]]&gt; */&lt;/script&gt; \nFormat settings, CABAC : Yes \nFormat settings, ReFrames : 8 frames \nCodec ID : avc1 \nCodec ID/Info : Advanced Video Coding \nDuration : 8mn 0s \nBit rate : 1 072 Kbps \nMaximum bit rate : 3 518 Kbps \nWidth : 1 280 pixels \nHeight : 720 pixels \nDisplay aspect ratio : 16:9 \nFrame rate mode : Constant \nFrame rate : 23.976 fps \nColor space : YUV \nChroma subsampling : 4:2:0 \nBit depth : 10 bits \nScan type : Progressive \nBits/(Pixel*Frame) : 0.049 \nStream size : 61.4 MiB (89%) \n\n\nAudio \nID : 2 \nFormat : AAC \nFormat/Info : Advanced Audio Codec \nFormat profile : LC \nCodec ID : 40 \nDuration : 8mn 0s \nBit rate mode : Variable \nBit rate : 126 Kbps \nMaximum bit rate : 135 Kbps \nChannel(s) : 2 channels \nChannel positions : Front: L R \nSampling rate : 44.1 KHz \nCompression mode : Lossy \nStream size : 7.20 MiB (10%) \nLanguage : English ","torrent":{"xt":"urn:btih:197121af7619cdfe3616ab7a108e5ce82f9be1ee","amp;dn":"Katy+Perry+-+Birthday+%28Official%29+720p+ReEnc+DeeJayAhmed","amp;tr":["udp%3A%2F%2Ftracker.openbittorrent.com%3A80","udp%3A%2F%2Fopen.demonii.com%3A1337","udp%3A%2F%2Ftracker.coppersurfer.tk%3A6969","udp%3A%2F%2Fexodus.desync.com%3A6969"],"infoHash":"197121af7619cdfe3616ab7a108e5ce82f9be1ee","infoHashBuffer":{"type":"Buffer","data":[25,113,33,175,118,25,205,254,54,22,171,122,16,142,92,232,47,155,225,238]},"announce":[],"urlList":[]}}